<svg version="1" xmlns="http://www.w3.org/2000/svg" width="533.333" height="533.333" viewBox="0 0 400.000000 400.000000"><path d="M199.5 26.4c-17 6.2-39.3 14.3-49.5 18.1-10.2 3.7-24.3 8.9-31.5 11.5l-13 4.7-.5 37.2-.5 37.2-4.5 1.9c-2.5 1.1-11 4.2-19 7.1-25.7 9.2-30.4 10.9-34.7 12.5l-4.3 1.6v149.4l27.2 9.9c15 5.4 29.2 10.6 31.5 11.4l4.2 1.6.3 14.4.3 14.4 27 9.9c14.9 5.4 29.1 10.6 31.6 11.5l4.5 1.6 34-12.2c18.6-6.8 44-16.1 56.4-20.6 12.4-4.6 25.7-9.4 29.5-10.8l7-2.5.3-37.3.2-37.4 31.5-11.4 31.5-11.4V89.2l-5.7-2.2c-3.2-1.2-7.4-2.8-9.3-3.5-1.9-.8-13.4-5-25.5-9.3l-22-7.9-.3-14.4-.3-14.4-30.8-11.3c-16.9-6.1-31.6-11.2-32.7-11.1-1 0-15.8 5.1-32.9 11.3zm2 75.1c6.7 6.7-1 22.4-11.9 24.2-2.8.4-3.9.1-6.1-2.2-2.5-2.4-2.7-3.2-2.3-8.1.5-6.3 4.2-11.8 9.9-14.6 4.7-2.4 7.5-2.2 10.4.7zm80 194.9c2.5 3.8 2.5 8 0 13.2-3.7 8-9.5 11.9-15.9 10.7-8.7-1.7-7.1-17.7 2.3-24 4.8-3.2 11.5-3.2 13.6.1zM168 341.2c0 18.7-.4 29.9-1 30.3-.5.3-1 1.3-1 2.1s.3 1.3.8 1.1c.4-.3.8.6.8 1.9.2 2.6-1.9 3.2-4.6 1.4-1.1-.8-.7-.9 1.5-.5 2.6.5 2.7.4.7-.4-1.2-.6-2.9-.8-3.6-.5-.8.3-2.8-.1-4.3-.9-1.5-.9-7.2-3-12.5-4.8-5.6-1.8-9.5-3.6-9.1-4.2.3-.6.1-.7-.5-.3-.6.3-4.3-.5-8.3-1.8-5.7-1.9-6.7-2.5-4.8-2.9 2-.4 1.8-.5-.6-.5-3.5.1-11.4-1.9-13.2-3.4-.7-.6-1.3-1.5-1.3-2.1 0-.5 1-.2 2.1.9 2.2 1.9 2.2 1.9.8-.4-1.2-2-1.2-2.4.1-3.2.8-.5 1-1 .5-1-.6 0-1.7.6-2.4 1.2-1 1.1-1.2-1-1-10.5.1-6.7.6-11.2 1-10.5.8 1.2 1.3.4 1-1.5 0-.4.5-.7 1.3-.7s1.6-.5 1.8-1.1c.2-.6 2.2-1.2 4.5-1.3 2.3 0 3.6-.4 3-.8-.8-.5-.4-.8 1-.8 1.2 0 2.4-.4 2.7-.9.9-1.4 4.7-2.1 3.9-.8-.3.7.2.5 1.3-.4 2.2-1.9 15.6-6.9 18.5-6.9 1 0 1.9-.4 1.9-.9s.7-1.2 1.6-1.5c1-.4 1.3-.2.8.7-.6.9-.4.9.7.1.8-.6 4.3-2.3 7.9-3.7 4.7-1.9 6.7-2.3 7.2-1.4.4.7.8 14.6.8 30.9z"/><path d="M143.6 318.8c-.2.4.4.8 1.4.8 1 0 1.6-.4 1.4-.8-.3-.4-.9-.8-1.4-.8-.5 0-1.1.4-1.4.8zM135 321.7c0 .6-1.1 1.4-2.5 1.7-1.4.4-2.5 1-2.5 1.6 0 1.4 4.1 2.3 5.2 1.2.8-.8.4-.9-1.1-.5-1.2.3-2.1.1-2.1-.6 0-.6.6-1.1 1.4-1.1 1.7 0 3.1-1.8 2.2-2.7-.3-.4-.6-.2-.6.4zM110.6 332.5c-.3.9-.6 2.2-.5 2.8 0 .7.5.1 1-1.2s.8-2.6.5-2.8c-.2-.2-.6.3-1 1.2zM126.8 360.7c.6.2 1.8.2 2.5 0 .6-.3.1-.5-1.3-.5-1.4 0-1.9.2-1.2.5zM131.8 361.7c.7.3 1.6.2 1.9-.1.4-.3-.2-.6-1.3-.5-1.1 0-1.4.3-.6.6zM126.5 363c2.7 1.2 4.3 1.2 2.5 0-.8-.5-2.2-.9-3-.9-1 0-.8.3.5.9zM147 369.7c-1.3 1.5-1.2 1.6.4 1 1-.4 2-.7 2.2-.7.2 0 .4-.5.4-1 0-1.5-1.3-1.2-3 .7zM152.8 369.7c.7.3 1.6.2 1.9-.1.4-.3-.2-.6-1.3-.5-1.1 0-1.4.3-.6.6z"/></svg>